<mxfile host="app.diagrams.net" agent="Mozilla/5.0 (Macintosh; Intel Mac OS X 10_15_7) AppleWebKit/605.1.15 (KHTML, like Gecko) Version/17.6 Safari/605.1.15" version="24.7.12">
  <diagram name="Página-1" id="Pr-cVqk1cx71wpogHfzG">
    <mxGraphModel grid="0" page="0" gridSize="10" guides="1" tooltips="1" connect="1" arrows="1" fold="1" pageScale="1" pageWidth="850" pageHeight="1100" math="0" shadow="0">
      <root>
        <mxCell id="0" />
        <mxCell id="1" parent="0" />
        <mxCell id="j9dqzV7lEAajW8CDmfil-1" value="Copia" style="shape=ext;margin=3;double=1;whiteSpace=wrap;html=1;align=center;" vertex="1" parent="1">
          <mxGeometry x="-36.46" y="83" width="100" height="39" as="geometry" />
        </mxCell>
        <mxCell id="j9dqzV7lEAajW8CDmfil-2" style="edgeStyle=none;curved=1;rounded=0;orthogonalLoop=1;jettySize=auto;html=1;entryX=0.5;entryY=1;entryDx=0;entryDy=0;fontSize=14;startSize=8;endSize=8;endArrow=none;endFill=0;" edge="1" parent="1" source="j9dqzV7lEAajW8CDmfil-5" target="j9dqzV7lEAajW8CDmfil-7">
          <mxGeometry relative="1" as="geometry" />
        </mxCell>
        <mxCell id="j9dqzV7lEAajW8CDmfil-3" style="edgeStyle=none;curved=1;rounded=0;orthogonalLoop=1;jettySize=auto;html=1;entryX=0.5;entryY=1;entryDx=0;entryDy=0;fontSize=12;startSize=8;endSize=8;endArrow=none;endFill=0;" edge="1" parent="1" source="j9dqzV7lEAajW8CDmfil-5" target="j9dqzV7lEAajW8CDmfil-8">
          <mxGeometry relative="1" as="geometry" />
        </mxCell>
        <mxCell id="j9dqzV7lEAajW8CDmfil-4" style="edgeStyle=none;curved=1;rounded=0;orthogonalLoop=1;jettySize=auto;html=1;entryX=0.5;entryY=1;entryDx=0;entryDy=0;fontSize=12;startSize=8;endSize=8;endArrow=none;endFill=0;" edge="1" parent="1" source="j9dqzV7lEAajW8CDmfil-5" target="j9dqzV7lEAajW8CDmfil-9">
          <mxGeometry relative="1" as="geometry" />
        </mxCell>
        <mxCell id="j9dqzV7lEAajW8CDmfil-5" value="Lugar" style="ellipse;whiteSpace=wrap;html=1;align=center;" vertex="1" parent="1">
          <mxGeometry x="6" y="-6" width="100" height="40" as="geometry" />
        </mxCell>
        <mxCell id="j9dqzV7lEAajW8CDmfil-6" style="edgeStyle=none;curved=1;rounded=0;orthogonalLoop=1;jettySize=auto;html=1;entryX=0.5;entryY=1;entryDx=0;entryDy=0;fontSize=12;startSize=8;endSize=8;endArrow=none;endFill=0;" edge="1" parent="1" source="j9dqzV7lEAajW8CDmfil-1" target="j9dqzV7lEAajW8CDmfil-5">
          <mxGeometry relative="1" as="geometry" />
        </mxCell>
        <mxCell id="j9dqzV7lEAajW8CDmfil-7" value="CDD" style="ellipse;whiteSpace=wrap;html=1;align=center;" vertex="1" parent="1">
          <mxGeometry x="-71" y="-78" width="100" height="40" as="geometry" />
        </mxCell>
        <mxCell id="j9dqzV7lEAajW8CDmfil-8" value="PlantaEstante" style="ellipse;whiteSpace=wrap;html=1;align=center;" vertex="1" parent="1">
          <mxGeometry x="106" y="-78" width="125" height="40" as="geometry" />
        </mxCell>
        <mxCell id="j9dqzV7lEAajW8CDmfil-9" value="PosicionEstante" style="ellipse;whiteSpace=wrap;html=1;align=center;" vertex="1" parent="1">
          <mxGeometry x="3" y="-134" width="133" height="40" as="geometry" />
        </mxCell>
        <mxCell id="j9dqzV7lEAajW8CDmfil-10" style="edgeStyle=none;curved=1;rounded=0;orthogonalLoop=1;jettySize=auto;html=1;entryX=0.5;entryY=1;entryDx=0;entryDy=0;fontSize=13;startSize=8;endSize=8;endArrow=none;endFill=0;exitX=0.39;exitY=0.075;exitDx=0;exitDy=0;exitPerimeter=0;" edge="1" parent="1" source="j9dqzV7lEAajW8CDmfil-13" target="j9dqzV7lEAajW8CDmfil-14">
          <mxGeometry relative="1" as="geometry" />
        </mxCell>
        <mxCell id="j9dqzV7lEAajW8CDmfil-11" style="edgeStyle=none;curved=1;rounded=0;orthogonalLoop=1;jettySize=auto;html=1;fontSize=12;endArrow=none;endFill=0;shape=link;" edge="1" parent="1" source="j9dqzV7lEAajW8CDmfil-13" target="j9dqzV7lEAajW8CDmfil-78">
          <mxGeometry relative="1" as="geometry" />
        </mxCell>
        <mxCell id="j9dqzV7lEAajW8CDmfil-12" style="edgeStyle=none;curved=1;rounded=0;orthogonalLoop=1;jettySize=auto;html=1;entryX=0;entryY=0.5;entryDx=0;entryDy=0;fontSize=12;endArrow=none;endFill=0;shape=link;" edge="1" parent="1" source="j9dqzV7lEAajW8CDmfil-13" target="j9dqzV7lEAajW8CDmfil-84">
          <mxGeometry relative="1" as="geometry" />
        </mxCell>
        <mxCell id="j9dqzV7lEAajW8CDmfil-13" value="Libro" style="whiteSpace=wrap;html=1;align=center;" vertex="1" parent="1">
          <mxGeometry x="587" y="83" width="100" height="40" as="geometry" />
        </mxCell>
        <mxCell id="j9dqzV7lEAajW8CDmfil-14" value="ISBN" style="ellipse;whiteSpace=wrap;html=1;align=center;fontStyle=4" vertex="1" parent="1">
          <mxGeometry x="497" y="-14" width="100" height="40" as="geometry" />
        </mxCell>
        <mxCell id="j9dqzV7lEAajW8CDmfil-15" style="edgeStyle=none;curved=1;rounded=0;orthogonalLoop=1;jettySize=auto;html=1;entryX=0.5;entryY=0;entryDx=0;entryDy=0;fontSize=12;startSize=8;endSize=8;endArrow=none;endFill=0;" edge="1" parent="1" source="j9dqzV7lEAajW8CDmfil-16" target="j9dqzV7lEAajW8CDmfil-13">
          <mxGeometry relative="1" as="geometry" />
        </mxCell>
        <mxCell id="j9dqzV7lEAajW8CDmfil-16" value="AñoPublicacion" style="ellipse;whiteSpace=wrap;html=1;align=center;fontStyle=0" vertex="1" parent="1">
          <mxGeometry x="536" y="-64" width="119" height="40" as="geometry" />
        </mxCell>
        <mxCell id="j9dqzV7lEAajW8CDmfil-17" style="edgeStyle=none;curved=1;rounded=0;orthogonalLoop=1;jettySize=auto;html=1;fontSize=12;startSize=8;endSize=8;endArrow=none;endFill=0;" edge="1" parent="1" source="j9dqzV7lEAajW8CDmfil-18" target="j9dqzV7lEAajW8CDmfil-13">
          <mxGeometry relative="1" as="geometry" />
        </mxCell>
        <mxCell id="j9dqzV7lEAajW8CDmfil-18" value="Titulo&amp;nbsp;" style="ellipse;whiteSpace=wrap;html=1;align=center;" vertex="1" parent="1">
          <mxGeometry x="637" y="-28" width="100" height="40" as="geometry" />
        </mxCell>
        <mxCell id="j9dqzV7lEAajW8CDmfil-19" style="edgeStyle=none;curved=1;rounded=0;orthogonalLoop=1;jettySize=auto;html=1;fontSize=12;startSize=8;endSize=8;entryX=0.75;entryY=0;entryDx=0;entryDy=0;endArrow=none;endFill=0;" edge="1" parent="1" source="j9dqzV7lEAajW8CDmfil-20" target="j9dqzV7lEAajW8CDmfil-13">
          <mxGeometry relative="1" as="geometry" />
        </mxCell>
        <mxCell id="j9dqzV7lEAajW8CDmfil-20" value="Autor" style="ellipse;shape=doubleEllipse;margin=3;whiteSpace=wrap;html=1;align=center;" vertex="1" parent="1">
          <mxGeometry x="719" y="12" width="100" height="40" as="geometry" />
        </mxCell>
        <mxCell id="j9dqzV7lEAajW8CDmfil-21" style="edgeStyle=none;curved=1;rounded=0;orthogonalLoop=1;jettySize=auto;html=1;entryX=0.25;entryY=0;entryDx=0;entryDy=0;fontSize=12;startSize=8;endSize=8;endArrow=none;endFill=0;" edge="1" parent="1" source="j9dqzV7lEAajW8CDmfil-22" target="j9dqzV7lEAajW8CDmfil-13">
          <mxGeometry relative="1" as="geometry" />
        </mxCell>
        <mxCell id="j9dqzV7lEAajW8CDmfil-22" value="NumPaginas" style="ellipse;whiteSpace=wrap;html=1;align=center;" vertex="1" parent="1">
          <mxGeometry x="432" y="28" width="100" height="40" as="geometry" />
        </mxCell>
        <mxCell id="j9dqzV7lEAajW8CDmfil-23" style="edgeStyle=none;curved=1;rounded=0;orthogonalLoop=1;jettySize=auto;html=1;entryX=0;entryY=1;entryDx=0;entryDy=0;fontSize=12;startSize=8;endSize=8;endArrow=none;endFill=0;" edge="1" parent="1" source="j9dqzV7lEAajW8CDmfil-24" target="j9dqzV7lEAajW8CDmfil-34">
          <mxGeometry relative="1" as="geometry" />
        </mxCell>
        <mxCell id="j9dqzV7lEAajW8CDmfil-24" value="Editorial" style="whiteSpace=wrap;html=1;align=center;" vertex="1" parent="1">
          <mxGeometry x="1138" y="83" width="100" height="40" as="geometry" />
        </mxCell>
        <mxCell id="j9dqzV7lEAajW8CDmfil-25" style="edgeStyle=none;curved=1;rounded=0;orthogonalLoop=1;jettySize=auto;html=1;entryX=0.25;entryY=0;entryDx=0;entryDy=0;fontSize=12;startSize=8;endSize=8;endArrow=none;endFill=0;" edge="1" parent="1" source="j9dqzV7lEAajW8CDmfil-26" target="j9dqzV7lEAajW8CDmfil-24">
          <mxGeometry relative="1" as="geometry" />
        </mxCell>
        <mxCell id="j9dqzV7lEAajW8CDmfil-26" value="IdEditorial" style="ellipse;whiteSpace=wrap;html=1;align=center;fontStyle=4" vertex="1" parent="1">
          <mxGeometry x="1048" y="4" width="100" height="40" as="geometry" />
        </mxCell>
        <mxCell id="j9dqzV7lEAajW8CDmfil-27" style="edgeStyle=none;curved=1;rounded=0;orthogonalLoop=1;jettySize=auto;html=1;fontSize=12;startSize=8;endSize=8;endArrow=none;endFill=0;" edge="1" parent="1" source="j9dqzV7lEAajW8CDmfil-28" target="j9dqzV7lEAajW8CDmfil-24">
          <mxGeometry relative="1" as="geometry" />
        </mxCell>
        <mxCell id="j9dqzV7lEAajW8CDmfil-28" value="Nombre" style="ellipse;whiteSpace=wrap;html=1;align=center;" vertex="1" parent="1">
          <mxGeometry x="1151" y="-49" width="100" height="40" as="geometry" />
        </mxCell>
        <mxCell id="j9dqzV7lEAajW8CDmfil-29" style="edgeStyle=none;curved=1;rounded=0;orthogonalLoop=1;jettySize=auto;html=1;entryX=0;entryY=0.5;entryDx=0;entryDy=0;fontSize=12;startSize=8;endSize=8;endArrow=none;endFill=0;" edge="1" parent="1" source="j9dqzV7lEAajW8CDmfil-34" target="j9dqzV7lEAajW8CDmfil-35">
          <mxGeometry relative="1" as="geometry" />
        </mxCell>
        <mxCell id="j9dqzV7lEAajW8CDmfil-30" style="edgeStyle=none;curved=1;rounded=0;orthogonalLoop=1;jettySize=auto;html=1;entryX=0;entryY=0.5;entryDx=0;entryDy=0;fontSize=12;startSize=8;endSize=8;endArrow=none;endFill=0;" edge="1" parent="1" source="j9dqzV7lEAajW8CDmfil-34" target="j9dqzV7lEAajW8CDmfil-36">
          <mxGeometry relative="1" as="geometry" />
        </mxCell>
        <mxCell id="j9dqzV7lEAajW8CDmfil-31" style="edgeStyle=none;curved=1;rounded=0;orthogonalLoop=1;jettySize=auto;html=1;entryX=0;entryY=0.5;entryDx=0;entryDy=0;fontSize=12;startSize=8;endSize=8;endArrow=none;endFill=0;" edge="1" parent="1" source="j9dqzV7lEAajW8CDmfil-34" target="j9dqzV7lEAajW8CDmfil-37">
          <mxGeometry relative="1" as="geometry" />
        </mxCell>
        <mxCell id="j9dqzV7lEAajW8CDmfil-32" style="edgeStyle=none;curved=1;rounded=0;orthogonalLoop=1;jettySize=auto;html=1;entryX=0;entryY=0.5;entryDx=0;entryDy=0;fontSize=12;startSize=8;endSize=8;endArrow=none;endFill=0;" edge="1" parent="1" source="j9dqzV7lEAajW8CDmfil-34" target="j9dqzV7lEAajW8CDmfil-38">
          <mxGeometry relative="1" as="geometry" />
        </mxCell>
        <mxCell id="j9dqzV7lEAajW8CDmfil-33" style="edgeStyle=none;curved=1;rounded=0;orthogonalLoop=1;jettySize=auto;html=1;entryX=0;entryY=0.5;entryDx=0;entryDy=0;fontSize=12;startSize=8;endSize=8;endArrow=none;endFill=0;" edge="1" parent="1" source="j9dqzV7lEAajW8CDmfil-34" target="j9dqzV7lEAajW8CDmfil-39">
          <mxGeometry relative="1" as="geometry" />
        </mxCell>
        <mxCell id="j9dqzV7lEAajW8CDmfil-34" value="Ubicacion" style="ellipse;whiteSpace=wrap;html=1;align=center;" vertex="1" parent="1">
          <mxGeometry x="1257" y="4" width="100" height="40" as="geometry" />
        </mxCell>
        <mxCell id="j9dqzV7lEAajW8CDmfil-35" value="Estado" style="ellipse;whiteSpace=wrap;html=1;align=center;" vertex="1" parent="1">
          <mxGeometry x="1385" y="-122" width="100" height="40" as="geometry" />
        </mxCell>
        <mxCell id="j9dqzV7lEAajW8CDmfil-36" value="Municipio" style="ellipse;whiteSpace=wrap;html=1;align=center;" vertex="1" parent="1">
          <mxGeometry x="1417" y="-74" width="100" height="40" as="geometry" />
        </mxCell>
        <mxCell id="j9dqzV7lEAajW8CDmfil-37" value="Numero" style="ellipse;whiteSpace=wrap;html=1;align=center;" vertex="1" parent="1">
          <mxGeometry x="1427" y="-24" width="100" height="40" as="geometry" />
        </mxCell>
        <mxCell id="j9dqzV7lEAajW8CDmfil-38" value="Calle" style="ellipse;whiteSpace=wrap;html=1;align=center;" vertex="1" parent="1">
          <mxGeometry x="1432" y="24" width="100" height="40" as="geometry" />
        </mxCell>
        <mxCell id="j9dqzV7lEAajW8CDmfil-39" value="CodigoPostal" style="ellipse;whiteSpace=wrap;html=1;align=center;" vertex="1" parent="1">
          <mxGeometry x="1403" y="77" width="118" height="40" as="geometry" />
        </mxCell>
        <mxCell id="j9dqzV7lEAajW8CDmfil-40" style="edgeStyle=none;curved=1;rounded=0;orthogonalLoop=1;jettySize=auto;html=1;fontSize=12;startSize=8;endSize=8;endArrow=none;endFill=0;" edge="1" parent="1" source="j9dqzV7lEAajW8CDmfil-42" target="j9dqzV7lEAajW8CDmfil-43">
          <mxGeometry relative="1" as="geometry" />
        </mxCell>
        <mxCell id="j9dqzV7lEAajW8CDmfil-41" style="edgeStyle=orthogonalEdgeStyle;rounded=0;orthogonalLoop=1;jettySize=auto;html=1;entryX=0;entryY=0.5;entryDx=0;entryDy=0;fontSize=12;endArrow=none;endFill=0;shape=link;" edge="1" parent="1" source="j9dqzV7lEAajW8CDmfil-42" target="j9dqzV7lEAajW8CDmfil-80">
          <mxGeometry relative="1" as="geometry">
            <Array as="points">
              <mxPoint x="637" y="544" />
            </Array>
          </mxGeometry>
        </mxCell>
        <mxCell id="j9dqzV7lEAajW8CDmfil-42" value="Categoria" style="whiteSpace=wrap;html=1;align=center;" vertex="1" parent="1">
          <mxGeometry x="587" y="425" width="100" height="40" as="geometry" />
        </mxCell>
        <mxCell id="j9dqzV7lEAajW8CDmfil-43" value="Nombre" style="ellipse;whiteSpace=wrap;html=1;align=center;fontStyle=4" vertex="1" parent="1">
          <mxGeometry x="427" y="425" width="100" height="40" as="geometry" />
        </mxCell>
        <mxCell id="j9dqzV7lEAajW8CDmfil-44" style="edgeStyle=none;curved=1;rounded=0;orthogonalLoop=1;jettySize=auto;html=1;fontSize=12;startSize=8;endSize=8;endArrow=none;endFill=0;entryX=0.25;entryY=0;entryDx=0;entryDy=0;" edge="1" parent="1" source="j9dqzV7lEAajW8CDmfil-45" target="j9dqzV7lEAajW8CDmfil-1">
          <mxGeometry relative="1" as="geometry" />
        </mxCell>
        <mxCell id="j9dqzV7lEAajW8CDmfil-45" value="&lt;span style=&quot;border-bottom: 1px dotted&quot;&gt;NumCopia&lt;/span&gt;" style="ellipse;whiteSpace=wrap;html=1;align=center;" vertex="1" parent="1">
          <mxGeometry x="-133" y="4" width="100" height="40" as="geometry" />
        </mxCell>
        <mxCell id="j9dqzV7lEAajW8CDmfil-46" style="edgeStyle=none;curved=1;rounded=0;orthogonalLoop=1;jettySize=auto;html=1;entryX=0.5;entryY=0;entryDx=0;entryDy=0;fontSize=12;startSize=8;endSize=8;endArrow=none;endFill=0;" edge="1" parent="1" source="j9dqzV7lEAajW8CDmfil-50" target="j9dqzV7lEAajW8CDmfil-54">
          <mxGeometry relative="1" as="geometry" />
        </mxCell>
        <mxCell id="j9dqzV7lEAajW8CDmfil-47" style="edgeStyle=none;curved=1;rounded=0;orthogonalLoop=1;jettySize=auto;html=1;fontSize=12;startSize=8;endSize=8;endArrow=none;endFill=0;" edge="1" parent="1" source="j9dqzV7lEAajW8CDmfil-50" target="j9dqzV7lEAajW8CDmfil-62">
          <mxGeometry relative="1" as="geometry" />
        </mxCell>
        <mxCell id="j9dqzV7lEAajW8CDmfil-48" style="edgeStyle=none;curved=1;rounded=0;orthogonalLoop=1;jettySize=auto;html=1;entryX=0.331;entryY=0;entryDx=0;entryDy=0;fontSize=12;startSize=8;endSize=8;endArrow=none;endFill=0;entryPerimeter=0;exitX=0.66;exitY=0.85;exitDx=0;exitDy=0;exitPerimeter=0;" edge="1" parent="1" source="j9dqzV7lEAajW8CDmfil-50" target="j9dqzV7lEAajW8CDmfil-67">
          <mxGeometry relative="1" as="geometry" />
        </mxCell>
        <mxCell id="j9dqzV7lEAajW8CDmfil-49" style="edgeStyle=none;curved=1;rounded=0;orthogonalLoop=1;jettySize=auto;html=1;fontSize=12;startSize=8;endSize=8;endArrow=none;endFill=0;" edge="1" parent="1" source="j9dqzV7lEAajW8CDmfil-50" target="j9dqzV7lEAajW8CDmfil-68">
          <mxGeometry relative="1" as="geometry" />
        </mxCell>
        <mxCell id="j9dqzV7lEAajW8CDmfil-50" value="Lector" style="whiteSpace=wrap;html=1;align=center;" vertex="1" parent="1">
          <mxGeometry x="-33" y="425" width="100" height="40" as="geometry" />
        </mxCell>
        <mxCell id="j9dqzV7lEAajW8CDmfil-51" style="edgeStyle=none;curved=1;rounded=0;orthogonalLoop=1;jettySize=auto;html=1;entryX=0.5;entryY=0;entryDx=0;entryDy=0;fontSize=12;startSize=8;endSize=8;endArrow=none;endFill=0;" edge="1" parent="1" source="j9dqzV7lEAajW8CDmfil-54" target="j9dqzV7lEAajW8CDmfil-55">
          <mxGeometry relative="1" as="geometry" />
        </mxCell>
        <mxCell id="j9dqzV7lEAajW8CDmfil-52" style="edgeStyle=none;curved=1;rounded=0;orthogonalLoop=1;jettySize=auto;html=1;entryX=0.5;entryY=0;entryDx=0;entryDy=0;fontSize=12;startSize=8;endSize=8;endArrow=none;endFill=0;" edge="1" parent="1" source="j9dqzV7lEAajW8CDmfil-54" target="j9dqzV7lEAajW8CDmfil-56">
          <mxGeometry relative="1" as="geometry" />
        </mxCell>
        <mxCell id="j9dqzV7lEAajW8CDmfil-53" style="edgeStyle=none;curved=1;rounded=0;orthogonalLoop=1;jettySize=auto;html=1;entryX=0.5;entryY=0;entryDx=0;entryDy=0;fontSize=12;startSize=8;endSize=8;endArrow=none;endFill=0;" edge="1" parent="1" source="j9dqzV7lEAajW8CDmfil-54" target="j9dqzV7lEAajW8CDmfil-57">
          <mxGeometry relative="1" as="geometry" />
        </mxCell>
        <mxCell id="j9dqzV7lEAajW8CDmfil-54" value="NombreCompleto" style="ellipse;whiteSpace=wrap;html=1;align=center;" vertex="1" parent="1">
          <mxGeometry x="-115" y="528" width="124" height="40" as="geometry" />
        </mxCell>
        <mxCell id="j9dqzV7lEAajW8CDmfil-55" value="Nombre" style="ellipse;whiteSpace=wrap;html=1;align=center;" vertex="1" parent="1">
          <mxGeometry x="-195" y="589" width="100" height="40" as="geometry" />
        </mxCell>
        <mxCell id="j9dqzV7lEAajW8CDmfil-56" value="ApPaterno" style="ellipse;whiteSpace=wrap;html=1;align=center;" vertex="1" parent="1">
          <mxGeometry x="-99" y="635" width="100" height="40" as="geometry" />
        </mxCell>
        <mxCell id="j9dqzV7lEAajW8CDmfil-57" value="ApMaterno" style="ellipse;whiteSpace=wrap;html=1;align=center;" vertex="1" parent="1">
          <mxGeometry x="-12.999999999999993" y="591" width="100" height="40" as="geometry" />
        </mxCell>
        <mxCell id="j9dqzV7lEAajW8CDmfil-58" style="edgeStyle=none;curved=1;rounded=0;orthogonalLoop=1;jettySize=auto;html=1;entryX=1;entryY=0.5;entryDx=0;entryDy=0;fontSize=12;startSize=8;endSize=8;endArrow=none;endFill=0;" edge="1" parent="1" source="j9dqzV7lEAajW8CDmfil-62" target="j9dqzV7lEAajW8CDmfil-63">
          <mxGeometry relative="1" as="geometry" />
        </mxCell>
        <mxCell id="j9dqzV7lEAajW8CDmfil-59" style="edgeStyle=none;curved=1;rounded=0;orthogonalLoop=1;jettySize=auto;html=1;fontSize=12;startSize=8;endSize=8;endArrow=none;endFill=0;" edge="1" parent="1" source="j9dqzV7lEAajW8CDmfil-62" target="j9dqzV7lEAajW8CDmfil-64">
          <mxGeometry relative="1" as="geometry" />
        </mxCell>
        <mxCell id="j9dqzV7lEAajW8CDmfil-60" style="edgeStyle=none;curved=1;rounded=0;orthogonalLoop=1;jettySize=auto;html=1;entryX=1;entryY=0.5;entryDx=0;entryDy=0;fontSize=12;startSize=8;endSize=8;endArrow=none;endFill=0;" edge="1" parent="1" source="j9dqzV7lEAajW8CDmfil-62" target="j9dqzV7lEAajW8CDmfil-65">
          <mxGeometry relative="1" as="geometry" />
        </mxCell>
        <mxCell id="j9dqzV7lEAajW8CDmfil-61" style="edgeStyle=none;curved=1;rounded=0;orthogonalLoop=1;jettySize=auto;html=1;entryX=1;entryY=0.5;entryDx=0;entryDy=0;fontSize=12;startSize=8;endSize=8;endArrow=none;endFill=0;" edge="1" parent="1" source="j9dqzV7lEAajW8CDmfil-62" target="j9dqzV7lEAajW8CDmfil-66">
          <mxGeometry relative="1" as="geometry" />
        </mxCell>
        <mxCell id="j9dqzV7lEAajW8CDmfil-62" value="Direccion" style="ellipse;whiteSpace=wrap;html=1;align=center;" vertex="1" parent="1">
          <mxGeometry x="-199" y="425" width="100" height="40" as="geometry" />
        </mxCell>
        <mxCell id="j9dqzV7lEAajW8CDmfil-63" value="Municipio" style="ellipse;whiteSpace=wrap;html=1;align=center;" vertex="1" parent="1">
          <mxGeometry x="-328" y="368" width="100" height="40" as="geometry" />
        </mxCell>
        <mxCell id="j9dqzV7lEAajW8CDmfil-64" value="Numero" style="ellipse;whiteSpace=wrap;html=1;align=center;" vertex="1" parent="1">
          <mxGeometry x="-350" y="421" width="100" height="40" as="geometry" />
        </mxCell>
        <mxCell id="j9dqzV7lEAajW8CDmfil-65" value="Calle" style="ellipse;whiteSpace=wrap;html=1;align=center;" vertex="1" parent="1">
          <mxGeometry x="-350" y="474" width="100" height="40" as="geometry" />
        </mxCell>
        <mxCell id="j9dqzV7lEAajW8CDmfil-66" value="CodigoPostal" style="ellipse;whiteSpace=wrap;html=1;align=center;" vertex="1" parent="1">
          <mxGeometry x="-328" y="523" width="118" height="40" as="geometry" />
        </mxCell>
        <mxCell id="j9dqzV7lEAajW8CDmfil-67" value="FechaNacimiento" style="ellipse;whiteSpace=wrap;html=1;align=center;" vertex="1" parent="1">
          <mxGeometry x="72" y="519" width="124" height="40" as="geometry" />
        </mxCell>
        <mxCell id="j9dqzV7lEAajW8CDmfil-68" value="IdLector" style="ellipse;whiteSpace=wrap;html=1;align=center;fontStyle=4" vertex="1" parent="1">
          <mxGeometry x="152" y="425" width="100" height="40" as="geometry" />
        </mxCell>
        <mxCell id="j9dqzV7lEAajW8CDmfil-69" style="edgeStyle=none;curved=1;rounded=0;orthogonalLoop=1;jettySize=auto;html=1;fontSize=12;startSize=8;endSize=8;endArrow=block;endFill=1;exitX=1;exitY=0.5;exitDx=0;exitDy=0;" edge="1" parent="1" source="j9dqzV7lEAajW8CDmfil-71" target="j9dqzV7lEAajW8CDmfil-13">
          <mxGeometry relative="1" as="geometry">
            <mxPoint x="370.79094076655065" y="132.5045296167249" as="sourcePoint" />
            <mxPoint x="596.9999999999998" y="132.9" as="targetPoint" />
          </mxGeometry>
        </mxCell>
        <mxCell id="j9dqzV7lEAajW8CDmfil-70" style="edgeStyle=none;curved=1;rounded=0;orthogonalLoop=1;jettySize=auto;html=1;entryX=1;entryY=0.5;entryDx=0;entryDy=0;fontSize=12;endArrow=none;endFill=0;shape=link;exitX=0;exitY=0.5;exitDx=0;exitDy=0;" edge="1" parent="1" source="j9dqzV7lEAajW8CDmfil-71" target="j9dqzV7lEAajW8CDmfil-1">
          <mxGeometry relative="1" as="geometry">
            <mxPoint x="241" y="102.5" as="sourcePoint" />
          </mxGeometry>
        </mxCell>
        <mxCell id="j9dqzV7lEAajW8CDmfil-71" value="Tener" style="shape=rhombus;double=1;perimeter=rhombusPerimeter;whiteSpace=wrap;html=1;align=center;" vertex="1" parent="1">
          <mxGeometry x="259" y="72.5" width="120" height="60" as="geometry" />
        </mxCell>
        <mxCell id="j9dqzV7lEAajW8CDmfil-72" style="edgeStyle=none;curved=1;rounded=0;orthogonalLoop=1;jettySize=auto;html=1;fontSize=12;startSize=8;endSize=8;endArrow=none;endFill=0;entryX=0.5;entryY=1;entryDx=0;entryDy=0;" edge="1" parent="1" source="j9dqzV7lEAajW8CDmfil-75" target="j9dqzV7lEAajW8CDmfil-1">
          <mxGeometry relative="1" as="geometry">
            <mxPoint x="13.539999999999964" y="125.42857142857144" as="targetPoint" />
          </mxGeometry>
        </mxCell>
        <mxCell id="j9dqzV7lEAajW8CDmfil-73" style="edgeStyle=none;curved=1;rounded=0;orthogonalLoop=1;jettySize=auto;html=1;fontSize=12;startSize=8;endSize=8;endArrow=block;endFill=1;" edge="1" parent="1" source="j9dqzV7lEAajW8CDmfil-75" target="j9dqzV7lEAajW8CDmfil-50">
          <mxGeometry relative="1" as="geometry" />
        </mxCell>
        <mxCell id="j9dqzV7lEAajW8CDmfil-74" style="edgeStyle=none;curved=1;rounded=0;orthogonalLoop=1;jettySize=auto;html=1;entryX=0;entryY=0.5;entryDx=0;entryDy=0;fontSize=12;startSize=8;endSize=8;endArrow=none;endFill=0;" edge="1" parent="1" source="j9dqzV7lEAajW8CDmfil-75" target="j9dqzV7lEAajW8CDmfil-76">
          <mxGeometry relative="1" as="geometry" />
        </mxCell>
        <mxCell id="j9dqzV7lEAajW8CDmfil-75" value="Pedir" style="shape=rhombus;perimeter=rhombusPerimeter;whiteSpace=wrap;html=1;align=center;" vertex="1" parent="1">
          <mxGeometry x="-48" y="233" width="120" height="60" as="geometry" />
        </mxCell>
        <mxCell id="j9dqzV7lEAajW8CDmfil-76" value="FechaDevolucion" style="ellipse;whiteSpace=wrap;html=1;align=center;" vertex="1" parent="1">
          <mxGeometry x="172" y="243" width="124" height="40" as="geometry" />
        </mxCell>
        <mxCell id="j9dqzV7lEAajW8CDmfil-77" style="edgeStyle=none;curved=1;rounded=0;orthogonalLoop=1;jettySize=auto;html=1;fontSize=12;startSize=8;endSize=8;endArrow=none;endFill=0;" edge="1" parent="1" source="j9dqzV7lEAajW8CDmfil-78" target="j9dqzV7lEAajW8CDmfil-42">
          <mxGeometry relative="1" as="geometry" />
        </mxCell>
        <mxCell id="j9dqzV7lEAajW8CDmfil-78" value="Asignar" style="shape=rhombus;perimeter=rhombusPerimeter;whiteSpace=wrap;html=1;align=center;" vertex="1" parent="1">
          <mxGeometry x="577" y="230" width="120" height="60" as="geometry" />
        </mxCell>
        <mxCell id="j9dqzV7lEAajW8CDmfil-79" style="edgeStyle=orthogonalEdgeStyle;rounded=0;orthogonalLoop=1;jettySize=auto;html=1;entryX=1;entryY=0.5;entryDx=0;entryDy=0;fontSize=12;startSize=8;endSize=8;" edge="1" parent="1" source="j9dqzV7lEAajW8CDmfil-80" target="j9dqzV7lEAajW8CDmfil-42">
          <mxGeometry relative="1" as="geometry">
            <Array as="points">
              <mxPoint x="788" y="445" />
            </Array>
          </mxGeometry>
        </mxCell>
        <mxCell id="j9dqzV7lEAajW8CDmfil-80" value="Pertenecer" style="shape=rhombus;perimeter=rhombusPerimeter;whiteSpace=wrap;html=1;align=center;" vertex="1" parent="1">
          <mxGeometry x="728" y="514" width="120" height="60" as="geometry" />
        </mxCell>
        <mxCell id="j9dqzV7lEAajW8CDmfil-81" value="Pertenece" style="text;html=1;align=center;verticalAlign=middle;whiteSpace=wrap;rounded=0;fontSize=12;" vertex="1" parent="1">
          <mxGeometry x="600" y="544" width="60" height="30" as="geometry" />
        </mxCell>
        <mxCell id="j9dqzV7lEAajW8CDmfil-82" value="Le pertenecen" style="text;html=1;align=center;verticalAlign=middle;whiteSpace=wrap;rounded=0;fontSize=12;" vertex="1" parent="1">
          <mxGeometry x="762" y="412" width="86" height="30" as="geometry" />
        </mxCell>
        <mxCell id="j9dqzV7lEAajW8CDmfil-83" style="edgeStyle=none;curved=1;rounded=0;orthogonalLoop=1;jettySize=auto;html=1;entryX=0;entryY=0.5;entryDx=0;entryDy=0;fontSize=12;startSize=8;endSize=8;endArrow=block;endFill=1;" edge="1" parent="1" source="j9dqzV7lEAajW8CDmfil-84" target="j9dqzV7lEAajW8CDmfil-24">
          <mxGeometry relative="1" as="geometry" />
        </mxCell>
        <mxCell id="j9dqzV7lEAajW8CDmfil-84" value="Publicar" style="shape=rhombus;perimeter=rhombusPerimeter;whiteSpace=wrap;html=1;align=center;" vertex="1" parent="1">
          <mxGeometry x="852" y="73" width="120" height="60" as="geometry" />
        </mxCell>
        <mxCell id="j9dqzV7lEAajW8CDmfil-85" style="edgeStyle=none;curved=1;rounded=0;orthogonalLoop=1;jettySize=auto;html=1;entryX=0.69;entryY=0.125;entryDx=0;entryDy=0;fontSize=12;startSize=8;endSize=8;endArrow=none;endFill=0;entryPerimeter=0;" edge="1" parent="1" source="j9dqzV7lEAajW8CDmfil-93" target="j9dqzV7lEAajW8CDmfil-94">
          <mxGeometry relative="1" as="geometry" />
        </mxCell>
        <mxCell id="j9dqzV7lEAajW8CDmfil-86" style="edgeStyle=none;curved=1;rounded=0;orthogonalLoop=1;jettySize=auto;html=1;entryX=0.5;entryY=0;entryDx=0;entryDy=0;fontSize=12;startSize=8;endSize=8;endArrow=none;endFill=0;" edge="1" parent="1" source="j9dqzV7lEAajW8CDmfil-93" target="j9dqzV7lEAajW8CDmfil-95">
          <mxGeometry relative="1" as="geometry" />
        </mxCell>
        <mxCell id="j9dqzV7lEAajW8CDmfil-87" style="edgeStyle=none;curved=1;rounded=0;orthogonalLoop=1;jettySize=auto;html=1;fontSize=12;startSize=8;endSize=8;endArrow=none;endFill=0;entryX=0.5;entryY=0;entryDx=0;entryDy=0;" edge="1" parent="1" source="j9dqzV7lEAajW8CDmfil-93" target="j9dqzV7lEAajW8CDmfil-96">
          <mxGeometry relative="1" as="geometry" />
        </mxCell>
        <mxCell id="j9dqzV7lEAajW8CDmfil-88" style="edgeStyle=none;curved=1;rounded=0;orthogonalLoop=1;jettySize=auto;html=1;entryX=0;entryY=0.5;entryDx=0;entryDy=0;fontSize=12;startSize=8;endSize=8;endArrow=none;endFill=0;" edge="1" parent="1" source="j9dqzV7lEAajW8CDmfil-93" target="j9dqzV7lEAajW8CDmfil-97">
          <mxGeometry relative="1" as="geometry" />
        </mxCell>
        <mxCell id="j9dqzV7lEAajW8CDmfil-89" style="edgeStyle=none;curved=1;rounded=0;orthogonalLoop=1;jettySize=auto;html=1;fontSize=12;startSize=8;endSize=8;entryX=0;entryY=0.5;entryDx=0;entryDy=0;endArrow=none;endFill=0;" edge="1" parent="1" source="j9dqzV7lEAajW8CDmfil-93" target="j9dqzV7lEAajW8CDmfil-98">
          <mxGeometry relative="1" as="geometry">
            <mxPoint x="1291" y="303" as="targetPoint" />
          </mxGeometry>
        </mxCell>
        <mxCell id="j9dqzV7lEAajW8CDmfil-90" style="edgeStyle=none;curved=1;rounded=0;orthogonalLoop=1;jettySize=auto;html=1;entryX=0;entryY=0.5;entryDx=0;entryDy=0;fontSize=12;startSize=8;endSize=8;endArrow=none;endFill=0;" edge="1" parent="1" source="j9dqzV7lEAajW8CDmfil-93" target="j9dqzV7lEAajW8CDmfil-99">
          <mxGeometry relative="1" as="geometry" />
        </mxCell>
        <mxCell id="j9dqzV7lEAajW8CDmfil-91" style="edgeStyle=orthogonalEdgeStyle;rounded=0;orthogonalLoop=1;jettySize=auto;html=1;entryX=0.5;entryY=1;entryDx=0;entryDy=0;fontSize=12;endArrow=none;endFill=0;strokeColor=default;shape=link;" edge="1" parent="1" source="j9dqzV7lEAajW8CDmfil-93" target="j9dqzV7lEAajW8CDmfil-84">
          <mxGeometry relative="1" as="geometry">
            <Array as="points">
              <mxPoint x="1138" y="200" />
              <mxPoint x="912" y="200" />
            </Array>
          </mxGeometry>
        </mxCell>
        <mxCell id="j9dqzV7lEAajW8CDmfil-92" style="edgeStyle=none;curved=1;rounded=0;orthogonalLoop=1;jettySize=auto;html=1;entryX=1;entryY=0.5;entryDx=0;entryDy=0;fontSize=12;endArrow=none;endFill=0;shape=link;" edge="1" parent="1" source="j9dqzV7lEAajW8CDmfil-93" target="j9dqzV7lEAajW8CDmfil-78">
          <mxGeometry relative="1" as="geometry" />
        </mxCell>
        <mxCell id="j9dqzV7lEAajW8CDmfil-93" value="Revista" style="whiteSpace=wrap;html=1;align=center;" vertex="1" parent="1">
          <mxGeometry x="1086" y="246" width="100" height="40" as="geometry" />
        </mxCell>
        <mxCell id="j9dqzV7lEAajW8CDmfil-94" value="Nombre" style="ellipse;whiteSpace=wrap;html=1;align=center;" vertex="1" parent="1">
          <mxGeometry x="1020" y="356" width="100" height="40" as="geometry" />
        </mxCell>
        <mxCell id="j9dqzV7lEAajW8CDmfil-95" value="Volumen" style="ellipse;whiteSpace=wrap;html=1;align=center;" vertex="1" parent="1">
          <mxGeometry x="1116" y="328" width="100" height="40" as="geometry" />
        </mxCell>
        <mxCell id="j9dqzV7lEAajW8CDmfil-96" value="Numero" style="ellipse;whiteSpace=wrap;html=1;align=center;" vertex="1" parent="1">
          <mxGeometry x="1225" y="340" width="100" height="40" as="geometry" />
        </mxCell>
        <mxCell id="j9dqzV7lEAajW8CDmfil-97" value="Año" style="ellipse;whiteSpace=wrap;html=1;align=center;" vertex="1" parent="1">
          <mxGeometry x="1290" y="284" width="100" height="40" as="geometry" />
        </mxCell>
        <mxCell id="j9dqzV7lEAajW8CDmfil-98" value="Mes" style="ellipse;whiteSpace=wrap;html=1;align=center;" vertex="1" parent="1">
          <mxGeometry x="1325" y="236" width="100" height="40" as="geometry" />
        </mxCell>
        <mxCell id="j9dqzV7lEAajW8CDmfil-99" value="IdRevista" style="ellipse;whiteSpace=wrap;html=1;align=center;fontStyle=4" vertex="1" parent="1">
          <mxGeometry x="1277" y="191" width="100" height="40" as="geometry" />
        </mxCell>
      </root>
    </mxGraphModel>
  </diagram>
</mxfile>
